Normalized EMG Linear Envelopes
nRows=236
nColumns=4

endheader
time	 med_gas_r	  soleus_r	 tib_ant_r	
6.3871	  0.019129	  0.068322	  0.042799	
6.42036	  0.019153	  0.065989	  0.041020	
6.45363	  0.019170	  0.063804	  0.039220	
6.4869	  0.019180	  0.061937	  0.037395	
6.52016	  0.019165	  0.060399	  0.035613	
6.55343	  0.019094	  0.059095	  0.034000	
6.58669	  0.018937	  0.057987	  0.032696	
6.61996	  0.018686	  0.057181	  0.031780	
6.65323	  0.018362	  0.056854	  0.031222	
6.68649	  0.018014	  0.057068	  0.030895	
6.71976	  0.017712	  0.057645	  0.030667	
6.75302	  0.017526	  0.058198	  0.030515	
6.78629	  0.017516	  0.058300	  0.030607	
6.81956	  0.017716	  0.057678	  0.031277	
6.85282	  0.018121	  0.056321	  0.032877	
6.88609	  0.018676	  0.054474	  0.035599	
6.91935	  0.019299	  0.052516	  0.039370	
6.95262	  0.019896	  0.050788	  0.043883	
6.98589	  0.020398	  0.049476	  0.048706	
7.01915	  0.020777	  0.048592	  0.053388	
7.05242	  0.021051	  0.048058	  0.057522	
7.08569	  0.021267	  0.047810	  0.060824	
7.11895	  0.021470	  0.047837	  0.063179	
7.15222	  0.021672	  0.048156	  0.064604	
7.18548	  0.021842	  0.048777	  0.065168	
7.21875	  0.021933	  0.049701	  0.064973	
7.25202	  0.021927	  0.050907	  0.064264	
7.28528	  0.021880	  0.052304	  0.063542	
7.31855	  0.021910	  0.053744	  0.063522	
7.35181	  0.022158	  0.055114	  0.064967	
7.38508	  0.022723	  0.056454	  0.068517	
7.41835	  0.023630	  0.057922	  0.074576	
7.45161	  0.024822	  0.059629	  0.083186	
7.48488	  0.026183	  0.061490	  0.093838	
7.51815	  0.027578	  0.063256	  0.105427	
7.55141	  0.028888	  0.064672	  0.116561	
7.58468	  0.030054	  0.065610	  0.126154	
7.61794	  0.031089	  0.066048	  0.133899	
7.65121	  0.032055	  0.065991	  0.140216	
7.68448	  0.033003	  0.065453	  0.145768	
7.71774	  0.033920	  0.064555	  0.150996	
7.75101	  0.034761	  0.063613	  0.156026	
7.78427	  0.035537	  0.063066	  0.160878	
7.81754	  0.036388	  0.063252	  0.165650	
7.85081	  0.037528	  0.064214	  0.170529	
7.88407	  0.039114	  0.065706	  0.175679	
7.91734	  0.041130	  0.067381	  0.181124	
7.9506	  0.043378	  0.068961	  0.186655	
7.98387	  0.045584	  0.070287	  0.191859	
8.01714	  0.047518	  0.071306	  0.196282	
8.0504	  0.049055	  0.072103	  0.199661	
8.08367	  0.050136	  0.072947	  0.202077	
8.11694	  0.050718	  0.074198	  0.203933	
8.1502	  0.050769	  0.076077	  0.205796	
8.18347	  0.050329	  0.078443	  0.208184	
8.21673	  0.049555	  0.080808	  0.211372	
8.25	  0.048677	  0.082606	  0.215327	
8.28327	  0.047898	  0.083535	  0.219769	
8.31653	  0.047328	  0.083705	  0.224333	
8.3498	  0.046997	  0.083509	  0.228696	
8.38306	  0.046911	  0.083367	  0.232687	
8.41633	  0.047080	  0.083534	  0.236378	
8.4496	  0.047505	  0.084095	  0.240103	
8.48286	  0.048176	  0.085053	  0.244328	
8.51613	  0.049090	  0.086409	  0.249476	
8.5494	  0.050267	  0.088177	  0.255862	
8.58266	  0.051720	  0.090378	  0.263771	
8.61593	  0.053404	  0.093036	  0.273445	
8.64919	  0.055201	  0.096126	  0.284809	
8.68246	  0.057002	  0.099487	  0.297157	
8.71573	  0.058804	  0.102772	  0.309294	
8.74899	  0.060741	  0.105558	  0.320238	
8.78226	  0.063007	  0.107575	  0.329864	
8.81552	  0.065707	  0.108880	  0.338735	
8.84879	  0.068737	  0.109807	  0.347216	
8.88206	  0.071762	  0.110765	  0.354866	
8.91532	  0.074321	  0.112042	  0.360835	
8.94859	  0.076020	  0.113761	  0.364737	
8.98185	  0.076724	  0.115930	  0.366952	
9.01512	  0.076656	  0.118462	  0.368095	
9.04839	  0.076291	  0.121168	  0.368393	
9.08165	  0.076129	  0.123796	  0.367696	
9.11492	  0.076474	  0.126135	  0.365939	
9.14819	  0.077375	  0.128114	  0.363439	
9.18145	  0.078702	  0.129795	  0.360800	
9.21472	  0.080270	  0.131290	  0.358679	
9.24798	  0.081938	  0.132651	  0.357642	
9.28125	  0.083673	  0.133841	  0.358057	
9.31452	  0.085596	  0.134764	  0.359860	
9.34778	  0.087928	  0.135290	  0.362318	
9.38105	  0.090837	  0.135268	  0.364138	
9.41431	  0.094273	  0.134560	  0.364083	
9.44758	  0.097965	  0.133170	  0.361753	
9.48085	  0.101657	  0.131412	  0.357870	
9.51411	  0.105447	  0.129962	  0.353764	
9.54738	  0.109932	  0.129671	  0.350522	
9.58065	  0.116001	  0.131165	  0.348655	
9.61391	  0.124321	  0.134506	  0.348570	
9.64718	  0.134827	  0.139185	  0.351264	
9.68044	  0.146579	  0.144472	  0.358348	
9.71371	  0.158123	  0.149838	  0.371203	
9.74698	  0.168148	  0.155085	  0.389986	
9.78024	  0.175874	  0.160112	  0.413365	
9.81351	  0.180858	  0.164604	  0.439145	
9.84677	  0.182520	  0.168015	  0.465090	
9.88004	  0.180140	  0.169871	  0.489230	
9.91331	  0.173546	  0.170090	  0.509668	
9.94657	  0.163756	  0.169016	  0.524489	
9.97984	  0.152721	  0.167177	  0.532295	
10.0131	  0.142256	  0.165034	  0.532998	
10.0464	  0.133188	  0.162896	  0.528066	
10.0796	  0.125435	  0.161017	  0.519817	
10.1129	  0.118743	  0.159695	  0.510326	
10.1462	  0.113234	  0.159265	  0.500850	
10.1794	  0.109319	  0.159955	  0.492090	
10.2127	  0.107280	  0.161724	  0.484776	
10.246	  0.107006	  0.164224	  0.479845	
10.2792	  0.108080	  0.166964	  0.478007	
10.3125	  0.110041	  0.169579	  0.479145	
10.3458	  0.112595	  0.171980	  0.482198	
10.379	  0.115665	  0.174289	  0.485711	
10.4123	  0.119279	  0.176630	  0.488615	
10.4456	  0.123386	  0.178996	  0.490613	
10.4788	  0.127722	  0.181334	  0.491945	
10.5121	  0.131822	  0.183766	  0.492811	
10.5454	  0.135190	  0.186673	  0.493065	
10.5786	  0.137471	  0.190469	  0.492505	
10.6119	  0.138529	  0.195159	  0.491559	
10.6452	  0.138398	  0.200063	  0.491619	
10.6784	  0.137205	  0.204051	  0.494474	
10.7117	  0.135119	  0.206178	  0.501124	
10.745	  0.132317	  0.206244	  0.510956	
10.7782	  0.128958	  0.204847	  0.521973	
10.8115	  0.125163	  0.202916	  0.531870	
10.8448	  0.121031	  0.201133	  0.539062	
10.878	  0.116691	  0.199667	  0.542974	
10.9113	  0.112351	  0.198310	  0.543595	
10.9446	  0.108304	  0.196836	  0.540875	
10.9778	  0.104864	  0.195296	  0.534542	
11.0111	  0.102275	  0.194049	  0.524538	
11.0444	  0.100608	  0.193531	  0.511617	
11.0776	  0.099706	  0.193914	  0.497435	
11.1109	  0.099201	  0.194906	  0.483865	
11.1442	  0.098636	  0.195832	  0.472066	
11.1774	  0.097701	  0.195935	  0.462137	
11.2107	  0.096454	  0.194695	  0.453642	
11.244	  0.095406	  0.192011	  0.446475	
11.2772	  0.095319	  0.188237	  0.441254	
11.3105	  0.096786	  0.184140	  0.438894	
11.3437	  0.099840	  0.180731	  0.439673	
11.377	  0.103880	  0.178914	  0.442512	
11.4103	  0.107976	  0.179052	  0.445093	
11.4435	  0.111333	  0.180736	  0.444862	
11.4768	  0.113581	  0.183028	  0.440303	
11.5101	  0.114746	  0.185032	  0.431657	
11.5433	  0.115015	  0.186340	  0.420622	
11.5766	  0.114524	  0.187036	  0.409345	
11.6099	  0.113290	  0.187357	  0.399425	
11.6431	  0.111314	  0.187363	  0.391520	
11.6764	  0.108715	  0.186865	  0.385588	
11.7097	  0.105769	  0.185601	  0.381376	
11.7429	  0.102820	  0.183449	  0.378748	
11.7762	  0.100103	  0.180522	  0.377685	
11.8095	  0.097644	  0.177103	  0.378013	
11.8427	  0.095305	  0.173522	  0.379118	
11.876	  0.092928	  0.170015	  0.379907	
11.9093	  0.090439	  0.166565	  0.379162	
11.9425	  0.087839	  0.162755	  0.376029	
11.9758	  0.085116	  0.157815	  0.370212	
12.0091	  0.082204	  0.151000	  0.361682	
12.0423	  0.079022	  0.142144	  0.350255	
12.0756	  0.075568	  0.131906	  0.335619	
12.1089	  0.071949	  0.121478	  0.317852	
12.1421	  0.068320	  0.111993	  0.297862	
12.1754	  0.064779	  0.104110	  0.277209	
12.2087	  0.061321	  0.097992	  0.257416	
12.2419	  0.057894	  0.093498	  0.239424	
12.2752	  0.054520	  0.090352	  0.223557	
12.3085	  0.051353	  0.088223	  0.209746	
12.3417	  0.048625	  0.086765	  0.197664	
12.375	  0.046513	  0.085669	  0.186815	
12.4083	  0.045043	  0.084718	  0.176818	
12.4415	  0.044076	  0.083831	  0.167714	
12.4748	  0.043378	  0.083064	  0.159837	
12.5081	  0.042698	  0.082513	  0.153245	
12.5413	  0.041863	  0.082159	  0.147368	
12.5746	  0.040842	  0.081746	  0.141351	
12.6079	  0.039766	  0.080822	  0.134788	
12.6411	  0.038854	  0.078979	  0.128027	
12.6744	  0.038294	  0.076171	  0.121741	
12.7077	  0.038132	  0.072852	  0.116259	
12.7409	  0.038241	  0.069800	  0.111363	
12.7742	  0.038404	  0.067718	  0.106712	
12.8075	  0.038449	  0.066902	  0.102381	
12.8407	  0.038358	  0.067204	  0.098955	
12.874	  0.038262	  0.068257	  0.097079	
12.9073	  0.038338	  0.069710	  0.096875	
12.9405	  0.038670	  0.071285	  0.097706	
12.9738	  0.039198	  0.072695	  0.098493	
13.0071	  0.039758	  0.073590	  0.098294	
13.0403	  0.040183	  0.073632	  0.096720	
13.0736	  0.040369	  0.072645	  0.093913	
13.1069	  0.040276	  0.070709	  0.090260	
13.1401	  0.039893	  0.068147	  0.086141	
13.1734	  0.039181	  0.065421	  0.081857	
13.2067	  0.038066	  0.062981	  0.077610	
13.2399	  0.036485	  0.061123	  0.073439	
13.2732	  0.034463	  0.059915	  0.069186	
13.3065	  0.032171	  0.059204	  0.064618	
13.3397	  0.029869	  0.058712	  0.059643	
13.373	  0.027789	  0.058165	  0.054465	
13.4062	  0.026024	  0.057415	  0.049526	
13.4395	  0.024537	  0.056519	  0.045265	
13.4728	  0.023253	  0.055714	  0.041871	
13.506	  0.022137	  0.055311	  0.039209	
13.5393	  0.021214	  0.055567	  0.036982	
13.5726	  0.020522	  0.056587	  0.034949	
13.6058	  0.020060	  0.058301	  0.033035	
13.6391	  0.019781	  0.060481	  0.031269	
13.6724	  0.019623	  0.062760	  0.029665	
13.7056	  0.019539	  0.064718	  0.028189	
13.7389	  0.019503	  0.066039	  0.026819	
13.7722	  0.019492	  0.066672	  0.025610	
13.8054	  0.019462	  0.066816	  0.024681	
13.8387	  0.019352	  0.066711	  0.024121	
13.872	  0.019114	  0.066397	  0.023896	
13.9052	  0.018742	  0.065703	  0.023837	
13.9385	  0.018278	  0.064458	  0.023744	
13.9718	  0.017802	  0.062710	  0.023530	
14.005	  0.017407	  0.060743	  0.023273	
14.0383	  0.017170	  0.058902	  0.023123	
14.0716	  0.017129	  0.057421	  0.023155	
14.1048	  0.017272	  0.056372	  0.023305	
14.1381	  0.017540	  0.055717	  0.023450	
14.1714	  0.017866	  0.055376	  0.023513	
14.2046	  0.018205	  0.055266	  0.023509	
